<svg xmlns="http://www.w3.org/2000/svg" width="30" height="30" viewBox="0 0 30 30" fill="none">
    <g filter="url(#filter0_dd_275_1103)">
        <rect x="0" y="0" width="30" height="30" rx="8" fill="#F05039" shape-rendering="crispEdges"/>
        <path d="M22.169 17.8502H21.3401V19.2708C21.3401 19.4313 21.4044 19.5329 21.5332 19.5757C21.662 19.6185 21.8739 19.6319 22.169 19.6159V20.7074C21.4018 20.7877 20.8706 20.7155 20.5756 20.4907C20.2805 20.2607 20.133 19.854 20.133 19.2708V17.8502H19.4891V16.6944H20.133V15.5708H21.3401V16.6944H22.169V17.8502Z" fill="#F8F8F8"/>
        <path d="M16.0102 19.4712C16.1902 19.6546 16.4248 19.7464 16.714 19.7464C17.0031 19.7464 17.2376 19.6546 17.4178 19.4712C17.5978 19.2878 17.6878 19.0404 17.6878 18.7291C17.6878 18.4177 17.5978 18.1704 17.4178 17.987C17.2376 17.8035 17.0031 17.7118 16.714 17.7118C16.4248 17.7118 16.1902 17.8035 16.0102 17.987C15.8302 18.1704 15.7401 18.4177 15.7401 18.7291C15.7401 19.0404 15.8302 19.2878 16.0102 19.4712ZM17.6878 16.6445H18.9153V20.8137H17.6878V20.4218C17.3987 20.7609 16.9922 20.9304 16.4684 20.9304C15.9283 20.9304 15.4674 20.7192 15.0855 20.2967C14.7036 19.8686 14.5126 19.3461 14.5126 18.7291C14.5126 18.112 14.7036 17.5923 15.0855 17.1698C15.4674 16.7418 15.9283 16.5277 16.4684 16.5277C16.9922 16.5277 17.3987 16.6973 17.6878 17.0364V16.6445Z" fill="#F8F8F8"/>
        <path d="M12.3861 16.5277C12.8544 16.5277 13.2301 16.6834 13.5132 16.9948C13.7963 17.3007 13.9379 17.7103 13.9379 18.2237V20.739H12.7129V18.3302C12.7129 18.1227 12.6611 17.9588 12.5577 17.8387C12.4596 17.7185 12.3153 17.6584 12.1248 17.6584C11.9233 17.6584 11.7654 17.7267 11.6511 17.8632C11.5422 17.9998 11.4878 18.1882 11.4878 18.4286V20.739H10.2626V18.3302C10.2626 18.1227 10.211 17.9588 10.1075 17.8387C10.0095 17.7185 9.8652 17.6584 9.6747 17.6584C9.4732 17.6584 9.3153 17.7267 9.2009 17.8632C9.092 17.9998 9.0376 18.1882 9.0376 18.4286V20.739H7.8125V16.6425H9.0376V17.0194C9.2609 16.6917 9.6257 16.5277 10.132 16.5277C10.6057 16.5277 10.9623 16.708 11.2019 17.0685C11.4524 16.708 11.8471 16.5277 12.3861 16.5277Z" fill="#F8F8F8"/>
        <path d="M18.1147 10.5884C18.5614 10.5884 18.9326 10.7388 19.2285 11.0396C19.5299 11.3404 19.6808 11.756 19.6808 12.2866V14.8051H18.4245V12.467C18.4245 12.2264 18.3548 12.0432 18.2152 11.9174C18.0812 11.7861 17.9082 11.7205 17.696 11.7205C17.4559 11.7205 17.2661 11.7916 17.1265 11.9338C16.987 12.076 16.9172 12.2866 16.9172 12.5655V14.8051H15.661V9.0625H16.9172V11.0888C17.1684 10.7552 17.5676 10.5884 18.1147 10.5884Z" fill="#F8F8F8"/>
        <path d="M11.9905 13.5374C12.1705 13.7208 12.4051 13.8125 12.6942 13.8125C12.9834 13.8125 13.218 13.7208 13.398 13.5374C13.578 13.3539 13.668 13.1065 13.668 12.7952C13.668 12.4839 13.578 12.2366 13.398 12.0532C13.218 11.8697 12.9834 11.778 12.6942 11.778C12.4051 11.778 12.1705 11.8697 11.9905 12.0532C11.8105 12.2366 11.7204 12.4839 11.7204 12.7952C11.7204 13.1065 11.8105 13.3539 11.9905 13.5374ZM13.668 10.7107H14.8955V14.8798H13.668V14.4879C13.3789 14.827 12.9725 14.9966 12.4487 14.9966C11.9086 14.9966 11.4476 14.7853 11.0657 14.3629C10.6839 13.9348 10.4929 13.4123 10.4929 12.7952C10.4929 12.1782 10.6839 11.6584 11.0657 11.236C11.4476 10.8079 11.9086 10.5939 12.4487 10.5939C12.9725 10.5939 13.3789 10.7635 13.668 11.1026V10.7107Z" fill="#F8F8F8"/>
        <path d="M9.0567 10.9937C9.1699 10.8734 9.3451 10.7757 9.4923 10.7129C9.7744 10.5925 10.0189 10.5939 10.301 10.5939V11.9977C9.9968 11.9481 9.712 12.0004 9.4466 12.1546C9.1867 12.3032 9.0567 12.5647 9.0567 12.939V14.8051H7.8125V10.6765H9.0567V10.9937Z" fill="#F8F8F8"/>
    </g>
</svg>