<svg width="114" height="24" viewBox="0 0 114 24" fill="none" xmlns="http://www.w3.org/2000/svg">
    <path d="M114 11.6153H110.587V17.7047C110.587 18.3931 110.852 18.828 111.382 19.0127C111.913 19.1958 112.785 19.2538 114 19.1851V23.8644C110.842 24.2078 108.655 23.8995 107.44 22.935C106.225 21.9491 105.618 20.2062 105.618 17.7063V11.6168H102.968V6.66282H105.618V1.84619H110.587V6.66282H114V11.6168V11.6153Z" fill="#F05039"/>
    <path d="M96.0034 6.02718H101.129V23.51H96.0034V21.8673C94.7951 23.2897 93.0986 24.0001 90.9109 24.0001C88.7231 24.0001 86.7295 23.1144 85.1346 21.343C83.5397 19.5484 82.7422 17.3566 82.7422 14.7693C82.7422 12.1821 83.5397 10.0027 85.1346 8.23133C86.7295 6.43668 88.6549 5.53857 90.9109 5.53857C93.1668 5.53857 94.7951 6.24899 96.0034 7.67138V6.02718ZM88.9976 17.8809C89.7495 18.6503 90.7289 19.0349 91.9373 19.0349C93.1456 19.0349 94.125 18.6503 94.8769 17.8809C95.6289 17.1115 96.0049 16.0738 96.0049 14.7693C96.0049 13.4648 95.6289 12.4271 94.8769 11.6578C94.125 10.8884 93.1456 10.5037 91.9373 10.5037C90.7289 10.5037 89.7495 10.8884 88.9976 11.6578C88.2456 12.4271 87.8696 13.4648 87.8696 14.7693C87.8696 16.0738 88.2456 17.1115 88.9976 17.8809Z" fill="#F05039"/>
    <path d="M72.5436 5.53857C74.5107 5.53857 76.0896 6.22051 77.2802 7.58596C78.4694 8.92752 79.0647 10.7232 79.0647 12.9729V24.0001H73.9169V13.4413C73.9169 12.5316 73.6992 11.813 73.2653 11.2856C72.8526 10.7582 72.2467 10.4953 71.4458 10.4953C70.5993 10.4953 69.9354 10.7949 69.4543 11.3939C68.9975 11.993 68.7676 12.8184 68.7676 13.8715V24.0001H63.6198V13.4413C63.6198 12.5316 63.4021 11.813 62.9682 11.2856C62.5571 10.7582 61.9496 10.4953 61.1487 10.4953C60.3022 10.4953 59.6383 10.7949 59.1572 11.3939C58.6989 11.993 58.4705 12.8184 58.4705 13.8715V24.0001H53.3228V6.04206H58.4705V7.69431C59.4084 6.25715 60.9417 5.53857 63.0702 5.53857C65.0602 5.53857 66.5599 6.32885 67.5663 7.9094C68.6184 6.32885 70.278 5.53857 72.5436 5.53857Z" fill="#F05039"/>
    <path d="M43.1994 6.37719C45.0376 6.37719 46.5669 7.00532 47.7842 8.26312C49.0244 9.52091 49.6453 11.2578 49.6453 13.4738V24H44.4733V14.2281C44.4733 13.2228 44.1858 12.4563 43.6123 11.9316C43.0602 11.3825 42.3476 11.1087 41.4743 11.1087C40.4864 11.1087 39.705 11.4053 39.1299 12C38.5549 12.5947 38.269 13.4738 38.269 14.6403V24H33.0969V0H38.269V8.46844C39.3028 7.07376 40.9467 6.37719 43.1978 6.37719H43.1994Z" fill="#F05039"/>
    <path d="M24.2937 6.02718H29.4196V23.51H24.2937V21.8673C23.0869 23.2897 21.3889 24.0001 19.2011 24.0001C17.0134 24.0001 15.0198 23.1144 13.4249 21.343C11.8299 19.5484 11.0325 17.3566 11.0325 14.7693C11.0325 12.1821 11.8299 10.0027 13.4249 8.23133C15.0198 6.43668 16.9452 5.53857 19.2011 5.53857C21.4571 5.53857 23.0854 6.24899 24.2937 7.67138V6.02718ZM17.2878 17.8809C18.0398 18.6503 19.0192 19.0349 20.2275 19.0349C21.4359 19.0349 22.4152 18.6503 23.1672 17.8809C23.9192 17.1115 24.2952 16.0738 24.2952 14.7693C24.2952 13.4648 23.9192 12.4271 23.1672 11.6578C22.4152 10.8884 21.4359 10.5037 20.2275 10.5037C19.0192 10.5037 18.0398 10.8884 17.2878 11.6578C16.5359 12.4271 16.1599 13.4648 16.1599 14.7693C16.1599 16.0738 16.5359 17.1115 17.2878 17.8809Z" fill="#F05039"/>
    <path d="M5.5145 7.29208C6.017 6.76378 6.7936 6.33665 7.4462 6.06045C8.69757 5.53215 9.78089 5.53858 11.0323 5.53858V11.6919C9.683 11.4751 8.42021 11.7047 7.2439 12.3792C6.09205 13.0311 5.51613 14.1776 5.51613 15.8187V24.0001H0V5.90148H5.51613V7.29208H5.5145Z" fill="#F05039"/>
</svg>
